<?xml version="1.0" encoding="UTF-8"?>
<svg version="1.1" xmlns="http://www.w3.org/2000/svg" width="1024" height="1024">
<path d="M0 0 C337.92 0 675.84 0 1024 0 C1024 337.92 1024 675.84 1024 1024 C686.08 1024 348.16 1024 0 1024 C0 686.08 0 348.16 0 0 Z " fill="#3E3E3D" transform="translate(0,0)"/>
<path d="M0 0 C337.92 0 675.84 0 1024 0 C1024 337.92 1024 675.84 1024 1024 C686.08 1024 348.16 1024 0 1024 C0 686.08 0 348.16 0 0 Z M94 94 C94 369.88 94 645.76 94 930 C369.88 930 645.76 930 930 930 C932.475 814.83 934.95 699.66 937.5 581 C938.59248047 544.86886719 939.68496094 508.73773438 940.81054688 471.51171875 C941.21230261 438.6294638 941.21230261 438.6294638 941.45324707 405.74584961 C941.55639128 392.21135328 941.91010022 378.73450215 942.53838012 365.21571185 C943.60822299 342.15870301 944.14208775 319.1545726 943.62304688 296.07421875 C943.60432092 295.20447644 943.58559496 294.33473414 943.56630155 293.438636 C942.14736805 233.25195506 921.16977903 196.02749659 877.92559147 154.6728611 C858.72176161 136.5006231 838.66120193 119.28212572 817.73404929 103.12452525 C816.73852735 102.35348423 815.74300542 101.5824432 814.71731615 100.7880373 C813.849459 100.12367706 812.98160185 99.45931681 812.087446 98.77482444 C810 97 810 97 808 94 C805.78936683 93.54791831 805.78936683 93.54791831 803.17341411 93.62740451 C801.63155611 93.61729164 801.63155611 93.61729164 800.05854946 93.60697447 C798.91825171 93.61485555 797.77795396 93.62273662 796.60310173 93.63085651 C795.39485304 93.62739528 794.18660435 93.62393405 792.94174207 93.62036793 C789.56327769 93.61375825 786.18531769 93.62072116 782.80690099 93.63320275 C779.14933563 93.64345003 775.49179918 93.63639342 771.83422852 93.63145447 C765.40892934 93.62520254 758.98371334 93.63019402 752.55842376 93.64235461 C742.88003561 93.6606122 733.20169812 93.66146836 723.52329583 93.65895871 C707.30637786 93.65522668 691.08949626 93.66513665 674.87258911 93.68327332 C652.94507543 93.70775344 631.01762403 93.71357969 609.09008789 93.71618652 C556.35171785 93.73195663 503.61335823 93.77383969 450.875 93.8125 C274.221875 93.9053125 274.221875 93.9053125 94 94 Z " fill="#3D3D3D" transform="translate(0,0)"/>
<path d="M0 0 C176.4365625 -0.309375 176.4365625 -0.309375 356.4375 -0.625 C412.22832642 -0.76156006 412.22832642 -0.76156006 469.14624023 -0.90087891 C514.42785645 -0.94604492 514.42785645 -0.94604492 535.5997467 -0.95443726 C551.42362813 -0.9644022 567.24708449 -1.00758999 583.07084646 -1.06673427 C599.19846559 -1.12620133 615.32581546 -1.14838101 631.45354015 -1.1344495 C641.0484219 -1.1272627 650.64230357 -1.14727727 660.23700066 -1.20807595 C666.56897711 -1.24548522 672.90028704 -1.2467651 679.23230882 -1.2183534 C682.84145834 -1.20319933 686.44868528 -1.20399505 690.05763066 -1.24882579 C693.95320569 -1.29683796 697.84602208 -1.26743137 701.74176693 -1.23047829 C703.42462979 -1.26988366 703.42462979 -1.26988366 705.14148989 -1.3100851 C709.72937885 -1.21129224 712.78132571 -1.03065731 716.3612609 1.99696575 C717.86283489 3.71840008 719.32028442 5.47909548 720.73664052 7.2712997 C724.58446202 11.91022329 729.42835642 15.24768129 734.21965694 18.85809231 C782.46468862 55.99792548 837.85040348 99.41667115 846.39335765 163.18667784 C847.98088785 175.8481803 848.56276924 188.52959816 848.82836914 201.27954102 C848.84724781 202.15636695 848.86612648 203.03319288 848.88557723 203.9365893 C849.34937525 227.0887546 848.69331817 250.17671965 847.68385323 273.30542745 C846.84044571 292.92226652 846.77878434 312.48904973 846.69030762 332.13269043 C846.10306979 383.62014676 844.52541233 435.09248061 843.0625 486.5625 C840.731875 601.876875 838.40125 717.19125 836 836 C560.12 836 284.24 836 0 836 C0 560.12 0 284.24 0 0 Z M38 38 C38 288.8 38 539.6 38 798 C288.8 798 539.6 798 798 798 C798 577.89 798 357.78 798 131 C767.97 131 737.94 131 707 131 C707 100.31 707 69.62 707 38 C486.23 38 265.46 38 38 38 Z " fill="#FDFDFC" transform="translate(94,94)"/>
<path d="M0 0 C1.76711779 1.61565055 3.37311557 3.24993111 5 5 C9.10301128 9.29928289 13.28259655 13.29868072 17.9375 17 C25.35548361 22.95295764 32.13205003 29.58524371 39.02294922 36.13183594 C44.64787751 41.44696946 50.39644558 46.62556913 56.25 51.6875 C58.71758181 53.8260709 61.04179854 56.0291453 63.3125 58.375 C67.85404149 62.99987253 72.95364683 66.94624783 78 71 C80.00772638 72.65772044 82.00424193 74.32787837 84 76 C82.6124182 79.13879381 81.00476592 81.22254795 78.55078125 83.609375 C77.86693359 84.28226563 77.18308594 84.95515625 76.47851562 85.6484375 C75.76373047 86.34195313 75.04894531 87.03546875 74.3125 87.75 C68.13279159 93.77507252 62.23300025 99.91120557 56.875 106.6875 C53.97611399 110.26279274 50.6254381 113.38286417 47.3515625 116.61328125 C42.59139944 121.32570629 37.96082267 126.07446488 33.609375 131.171875 C31.97413566 133.02937988 30.26518207 134.76606009 28.5 136.5 C26.20673964 138.75797943 24.03571972 141.05996504 21.9375 143.5 C18.47614415 147.51361713 14.87294844 151.38296596 11.25 155.25 C0.0888262 167.13514232 0.0888262 167.13514232 -10.75 179.3125 C-13.42196583 182.39798435 -16.24584716 185.26930135 -19.15795898 188.12695312 C-20.93190604 189.93075986 -22.58965723 191.78868161 -24.23828125 193.70703125 C-27.94716094 197.97248787 -31.7973427 202.0876821 -35.6875 206.1875 C-42.02686702 212.89580939 -48.31802925 219.64464636 -54.56445312 226.43945312 C-57.54142678 229.67564625 -60.52643593 232.90443321 -63.50976562 236.13476562 C-65.96212362 238.7906916 -68.41285409 241.44807036 -70.859375 244.109375 C-76.55367319 250.29874547 -82.29152156 256.44451734 -88.0625 262.5625 C-102.93264753 277.55266844 -102.93264753 277.55266844 -116 294 C-120.3103361 293.52791557 -122.77141797 290.74396416 -125.75 287.875 C-126.82747539 286.86128825 -127.90560005 285.84826617 -128.984375 284.8359375 C-129.50451172 284.34448242 -130.02464844 283.85302734 -130.56054688 283.34667969 C-132.3358211 281.68582273 -134.15813091 280.08648388 -136 278.5 C-139.39051319 275.56155524 -142.69951431 272.53867199 -146 269.5 C-151.67437373 264.28107978 -157.442216 259.19100962 -163.296875 254.17578125 C-170.62876587 247.87854694 -177.80312882 241.45421578 -184.84350586 234.83227539 C-190.70740112 229.31841679 -196.65341994 223.95826567 -203 219 C-202.4234559 215.59986814 -201.39002339 214.07329515 -198.875 211.75 C-196.27249677 209.26434386 -193.84150436 206.73352093 -191.5 204 C-189.2544206 201.39352391 -186.95448488 198.91065479 -184.5 196.5 C-179.71950904 191.79453917 -175.38287172 186.72883572 -171.1875 181.5 C-170.465625 180.675 -169.74375 179.85 -169 179 C-168.34 179 -167.68 179 -167 179 C-166.76667969 178.43796875 -166.53335938 177.8759375 -166.29296875 177.296875 C-164.68062924 174.43265858 -162.6806438 172.52747979 -160.3125 170.25 C-156.66055847 166.6710973 -153.20432299 163.03665964 -149.875 159.16015625 C-142.50270987 150.66666367 -134.70127605 142.5406898 -126.98583984 134.36083984 C-120.9429474 127.95058087 -114.95617201 121.49080736 -109 115 C-108.53787109 114.49662109 -108.07574219 113.99324219 -107.59960938 113.47460938 C-104.85064484 110.47958368 -102.10419016 107.48226819 -99.35888672 104.48388672 C-96.61331366 101.48575646 -93.86582709 98.48937894 -91.11816406 95.49316406 C-88.86186487 93.03247259 -86.60733857 90.57021844 -84.35546875 88.10546875 C-75.67607051 78.61277404 -66.90085818 69.21042645 -58.08984375 59.83984375 C-52.08193794 53.44853426 -46.09229226 47.05131826 -40.25390625 40.50390625 C-36.95975204 36.84436925 -33.60677113 33.23950538 -30.24731445 29.63989258 C-27.82198668 27.02840937 -25.49372743 24.39205637 -23.265625 21.609375 C-22.51796875 20.74828125 -21.7703125 19.8871875 -21 19 C-20.34 19 -19.68 19 -19 19 C-18.73501709 18.41573242 -18.47003418 17.83146484 -18.19702148 17.22949219 C-16.13025696 13.38007476 -13.03009692 10.42463856 -10.0625 7.25 C-9.42892578 6.55261719 -8.79535156 5.85523438 -8.14257812 5.13671875 C-7.2231543 4.14865234 -7.2231543 4.14865234 -6.28515625 3.140625 C-5.72707275 2.53766602 -5.16898926 1.93470703 -4.59399414 1.31347656 C-3 0 -3 0 0 0 Z " fill="#FDFDFC" transform="translate(521,429)"/>
<path d="M0 0 C1.37084222 1.6107396 2.73500977 3.22759934 4.06640625 4.87109375 C7.14821376 8.26419494 10.7623423 10.9620547 14.33984375 13.8125 C16.54253971 15.6238212 18.52860316 17.44784714 20.5 19.5 C24.16319239 23.3040844 28.26063776 26.50345159 32.37109375 29.80859375 C35.17169237 32.1431195 37.67017826 34.63602241 40.1953125 37.2578125 C42.32892301 39.31753173 44.60067331 41.11207611 46.9375 42.9375 C50.94839795 46.08068478 54.52868324 49.42148638 58.078125 53.0703125 C60.56312891 55.56541805 63.19518002 57.85250756 65.86328125 60.1484375 C69.15869383 63.0040601 72.38111536 65.93885982 75.59765625 68.8828125 C77.89838464 70.97429695 77.89838464 70.97429695 80.12109375 72.5546875 C83.71843807 75.20221326 85.35478035 77.05999931 86.25 81.5 C86.50402173 83.33278042 86.75366472 85.16617066 87 87 C87.46310693 89.19095617 87.94348579 91.3783052 88.4375 93.5625 C90.04280223 101.01337248 91.37953537 108.49856024 92.65917969 116.01074219 C92.97689029 117.86511608 93.30446645 119.71779221 93.6328125 121.5703125 C93.81585937 122.61960937 93.99890625 123.66890625 94.1875 124.75 C94.34605469 125.65234375 94.50460937 126.5546875 94.66796875 127.484375 C95.55252919 134.18622114 95.55252919 134.18622114 93.63891602 137.00463867 C93.01686279 137.6360376 92.39480957 138.26743652 91.75390625 138.91796875 C91.08166016 139.61470703 90.40941406 140.31144531 89.71679688 141.02929688 C89.00587891 141.74150391 88.29496094 142.45371094 87.5625 143.1875 C86.16626495 144.61682722 84.77165127 146.04774062 83.37890625 147.48046875 C82.7557251 148.10848389 82.13254395 148.73649902 81.49047852 149.38354492 C79.91125382 150.9462144 79.91125382 150.9462144 79 153 C78.34 153 77.68 153 77 153 C76.73968994 153.58249512 76.47937988 154.16499023 76.21118164 154.76513672 C74.91832105 157.15071338 73.49757373 158.80330267 71.62109375 160.7578125 C70.95166748 161.46075439 70.28224121 162.16369629 69.5925293 162.88793945 C68.52578979 163.99528442 68.52578979 163.99528442 67.4375 165.125 C65.97316667 166.66200657 64.50961929 168.19976233 63.046875 169.73828125 C62.34369141 170.47643066 61.64050781 171.21458008 60.91601562 171.97509766 C57.9238917 175.13726329 55.02241086 178.37638782 52.125 181.625 C49.66624805 184.37301689 47.18008636 187.09522609 44.6875 189.8125 C44.22964111 190.31233398 43.77178223 190.81216797 43.30004883 191.32714844 C40.86203587 193.984951 38.4131353 196.63181017 35.94921875 199.265625 C30.40836123 205.20100282 25.07608868 211.19091681 20.03515625 217.5625 C17.82656512 220.20772239 15.45098534 222.57797756 13 225 C10.85412104 227.25151687 8.73930999 229.53136039 6.625 231.8125 C6.05209229 232.42689941 5.47918457 233.04129883 4.88891602 233.67431641 C1.2619445 237.57965245 -2.23287532 241.55521062 -5.53515625 245.7421875 C-7 247 -7 247 -11 247 C-13.65625 244.91796875 -13.65625 244.91796875 -16.5 242.1875 C-19.56607654 239.26883099 -22.54497687 236.45274047 -26 234 C-24.75268007 229.42649359 -22.23026396 227.04400255 -18.9140625 223.87109375 C-16.43751688 221.45014405 -14.20970406 218.85552201 -11.94921875 216.234375 C-9.66979306 213.62148624 -7.33787647 211.06069979 -5 208.5 C-2.21313891 205.44613426 0.5527492 202.38317012 3.25 199.25 C7.29224847 194.59178986 11.53302544 190.1173165 15.76269531 185.62988281 C18.72422531 182.47857518 21.63354794 179.29699456 24.46875 176.03125 C28.64390157 171.22702984 33.01807428 166.62009478 37.39453125 162 C41.10498662 158.06676367 44.70993916 154.06509031 48.25439453 149.98193359 C51.74110375 146.02317759 55.39001071 142.21380151 59.01367188 138.38085938 C60.17280021 137.14793363 61.32535224 135.90878143 62.47021484 134.66259766 C63.76945186 133.25056381 65.09493375 131.86274997 66.42578125 130.48046875 C70.09327311 124.70166644 67.47920249 116.51553263 66.5 110.0625 C66.35691406 109.09248047 66.21382812 108.12246094 66.06640625 107.12304688 C65.71541329 104.74799448 65.35983904 102.37372541 65 100 C64.29617188 100.70511719 63.59234375 101.41023438 62.8671875 102.13671875 C60.96248458 104.04209187 59.05046497 105.93969647 57.1328125 107.83203125 C56.13018454 108.82549682 55.12758062 109.81898665 54.125 110.8125 C53.63386719 111.29525391 53.14273438 111.77800781 52.63671875 112.27539062 C49.20193807 115.68786753 46.00263903 119.25364926 42.83447266 122.91381836 C39.69126291 126.48830962 36.4024341 129.92398971 33.125 133.375 C28.07646508 138.71413127 23.07544044 144.08272933 18.18359375 149.56640625 C11.21417686 157.3337528 4.06298453 164.938689 -3.0625 172.5625 C-7.42996583 177.23776246 -11.79156127 181.91815503 -16.125 186.625 C-16.97320313 187.54539062 -17.82140625 188.46578125 -18.6953125 189.4140625 C-20.89118882 191.87791016 -22.94579479 194.41806903 -25 197 C-27.17513847 199.23392599 -29.39775215 201.41219455 -31.62890625 203.58984375 C-35.3277969 207.23908486 -38.78347514 211.01525489 -42.171875 214.953125 C-44.72798121 217.81509007 -47.46567423 220.47688705 -50.19921875 223.16796875 C-52.31146524 225.31687027 -54.19266075 227.59021434 -56 230 C-59.42229969 228.50323111 -61.82470213 226.52581023 -64.5625 224 C-65.43777344 223.19820312 -66.31304688 222.39640625 -67.21484375 221.5703125 C-68.13394531 220.72210938 -69.05304688 219.87390625 -70 219 C-71.87359068 217.29012113 -73.74858591 215.58177999 -75.625 213.875 C-76.54796875 213.03453125 -77.4709375 212.1940625 -78.421875 211.328125 C-80.55390951 209.40283323 -82.70309457 207.50488453 -84.875 205.625 C-90.70644887 200.55365852 -96.33380001 195.25411271 -102 190 C-111.55905535 181.14575979 -121.147195 172.33304178 -130.97265625 163.7734375 C-134.66957793 160.53952142 -138.33314248 157.267917 -142 154 C-141.48751744 149.86217786 -139.32569018 148.04914415 -136.375 145.25 C-133.38609857 142.3495027 -130.45395856 139.48098478 -127.75 136.3125 C-124.32208169 132.30784662 -120.73032925 128.46913365 -117.125 124.625 C-112.44543098 119.63252077 -107.81631947 114.60406246 -103.25390625 109.50390625 C-96.21027906 101.67901019 -89.00462985 94.000572 -81.8125 86.3125 C-77.23920157 81.42282151 -72.71783038 76.49396509 -68.25390625 71.50390625 C-61.21028108 63.67901243 -54.0046948 56.00050788 -46.8125 48.3125 C-43.00384917 44.24100657 -39.21571094 40.15690853 -35.5 36 C-31.57092384 31.61870942 -27.61174878 27.26631916 -23.625 22.9375 C-23.01720703 22.26912109 -22.40941406 21.60074219 -21.78320312 20.91210938 C-21.20763672 20.29013672 -20.63207031 19.66816406 -20.0390625 19.02734375 C-19.52553223 18.46781006 -19.01200195 17.90827637 -18.48291016 17.33178711 C-17 16 -17 16 -14 15 C-13.32180689 13.33799027 -12.65731358 11.67037753 -12 10 C-9.94140625 7.32421875 -9.94140625 7.32421875 -7.5625 4.6875 C-6.78003906 3.80449219 -5.99757813 2.92148437 -5.19140625 2.01171875 C-3 0 -3 0 0 0 Z " fill="#FCFCFC" transform="translate(678,258)"/>
<path d="M0 0 C3.77038469 1.2567949 5.24385063 3.14413466 8 6 C10.03937965 7.94174614 12.11385613 9.8449501 14.1875 11.75 C14.75557373 12.27295654 15.32364746 12.79591309 15.90893555 13.3347168 C22.16690133 19.08677545 28.45755906 24.80091885 34.875 30.375 C38.84330549 33.82919304 42.71012559 37.39130558 46.57983398 40.95483398 C49.33438092 43.487107 52.10725075 45.99020203 54.9375 48.4375 C58.52959184 51.54964638 62.01540855 54.76883339 65.5 58 C72.17899037 64.18991098 78.97498784 70.20436497 86 76 C84.37731814 79.95292848 81.64903642 82.76066204 78.75 85.8125 C77.66213808 86.96295351 76.57492531 88.11402111 75.48828125 89.265625 C74.91803223 89.86955078 74.3477832 90.47347656 73.76025391 91.09570312 C71.95794994 93.04549105 70.21616085 95.03768282 68.48046875 97.046875 C59.75618883 107.02005887 53.366383 111.26732072 40 113 C37.82668878 113.63819457 35.70058215 114.37348732 33.5625 115.12109375 C30.68531719 116.10793237 27.78624358 116.99377798 24.875 117.875 C20.13857659 119.32010366 15.44027873 120.84917843 10.75 122.4375 C4.58795028 124.51059413 -1.61231826 126.38223856 -7.85644531 128.19067383 C-14.8272506 130.2186173 -21.69333692 132.52061192 -28.55859375 134.87890625 C-32.35418959 136.16903488 -36.02789592 137.35933805 -40 138 C-36.73095254 130.82713857 -30.5096013 125.45560743 -24.96875 120 C-23.06013545 118.06108998 -21.27289448 116.06300449 -19.5 114 C-16.48358077 110.48998489 -13.26904868 107.24948724 -9.97265625 104.00390625 C-7.43427584 101.42531388 -5.09349834 98.70207737 -2.73828125 95.95703125 C-0.40404295 93.32904611 2.08764296 90.88411105 4.6171875 88.4453125 C6.10854485 87.02890223 6.10854485 87.02890223 7 85 C7.99 85 8.98 85 10 85 C10 85.66 10 86.32 10 87 C17.69560617 86.84692284 22.05492848 85.93314445 28 81 C28.66 81 29.32 81 30 81 C31.99399064 69.52310976 31.99399064 69.52310976 28 59 C24.99546702 55.58944904 22.32689106 54.17131602 17.79296875 53.5859375 C10.27691328 53.33347385 10.27691328 53.33347385 4 57 C3.34 57 2.68 57 2 57 C-0.46554961 63.2079017 -2.93867262 70.4368036 -0.171875 76.94921875 C-0.11515625 77.62597656 -0.0584375 78.30273438 0 79 C-2.0390625 81.35546875 -2.0390625 81.35546875 -5 84 C-6.03484563 85.01061737 -7.06329396 86.02781833 -8.0859375 87.05078125 C-8.62057617 87.58026367 -9.15521484 88.10974609 -9.70605469 88.65527344 C-14.42360153 93.33969531 -19.02349698 98.03758555 -23.328125 103.109375 C-25.29754029 105.33647079 -27.38374342 107.41214954 -29.5 109.5 C-33.54838532 113.50027208 -37.31501985 117.66576145 -41 122 C-42.14578777 123.33337249 -43.29161854 124.66670802 -44.4375 126 C-45.283125 126.99 -46.12875 127.98 -47 129 C-47.96818951 125.91994985 -47.98159019 123.84150891 -47.29296875 120.69921875 C-47.11830078 119.88646484 -46.94363281 119.07371094 -46.76367188 118.23632812 C-46.57353516 117.39521484 -46.38339844 116.55410156 -46.1875 115.6875 C-46.00896484 114.85798828 -45.83042969 114.02847656 -45.64648438 113.17382812 C-44.87800863 109.65881451 -44.05904161 106.2017924 -43.0480957 102.74658203 C-41.89964933 98.64128085 -40.99029333 94.52753271 -40.125 90.35546875 C-39.87000732 89.14072624 -39.87000732 89.14072624 -39.60986328 87.90144348 C-39.07086767 85.33061939 -38.53543134 82.7590685 -38 80.1875 C-37.64084765 78.47326063 -37.28147454 76.75906749 -36.921875 75.04492188 C-36.08149086 71.03435822 -35.24689902 67.02262882 -34.41653442 63.00997925 C-34.06498108 61.31356502 -33.7104411 59.61777012 -33.35522461 57.92211914 C-32.54012582 53.96786679 -31.85138917 50.03743417 -31.31640625 46.03515625 C-29.54216864 33.69242139 -26.81444858 28.02236667 -17 20 C-15.75698793 18.67759394 -14.5441218 17.32566102 -13.375 15.9375 C-9.94209845 11.91300619 -6.38746265 8.00728961 -2.8203125 4.1015625 C-0.96323333 2.13276579 -0.96323333 2.13276579 0 0 Z " fill="#FBFBFA" transform="translate(300,664)"/>
<path d="M0 0 C3.90442791 2.13017821 6.87817512 4.85603452 10 8 C10.62390625 8.6084375 11.2478125 9.216875 11.890625 9.84375 C13.03903401 10.98181299 14.17603339 12.13151583 15.30078125 13.29296875 C17.69438758 15.69758017 20.25206123 17.88994189 22.81640625 20.109375 C25.30774831 22.26645829 27.78456536 24.43832963 30.25 26.625 C31.05953125 27.33914062 31.8690625 28.05328125 32.703125 28.7890625 C38.83363089 34.69019572 38.83363089 34.69019572 39.4609375 39.62890625 C39.43257812 40.92699219 39.40421875 42.22507812 39.375 43.5625 C39.36210938 44.86316406 39.34921875 46.16382813 39.3359375 47.50390625 C38.75367285 53.56352087 36.27300581 55.82873242 32 60 C31.34 60.825 30.68 61.65 30 62.5 C27.83329484 65.20838146 25.45252812 67.54747188 23 70 C20.63571746 72.64011551 18.31241066 75.31440491 16 78 C12.26077871 76.4186938 9.70350263 74.06769602 6.75 71.3125 C3.55516282 68.35459165 0.35785975 65.40880654 -2.9375 62.5625 C-6.88589474 59.13299081 -10.72857458 55.59123177 -14.57568359 52.04931641 C-17.97806721 48.92213349 -21.42362142 45.85556126 -24.91796875 42.83203125 C-28.55934861 39.62789025 -32.11383833 36.3267953 -35.6796875 33.0390625 C-37.81946882 30.98422672 -37.81946882 30.98422672 -40 30 C-39.50414922 25.79518535 -36.93392777 23.41845348 -34.125 20.5 C-33.12587467 19.44050706 -32.12718998 18.38059845 -31.12890625 17.3203125 C-30.35571045 16.50481934 -30.35571045 16.50481934 -29.56689453 15.67285156 C-28.00797834 14.00851786 -26.4822429 12.31939493 -24.96484375 10.6171875 C-24.47806152 10.07384766 -23.9912793 9.53050781 -23.48974609 8.97070312 C-22.12803264 7.44826742 -20.76902519 5.92341266 -19.41015625 4.3984375 C-13.87531728 -1.10948977 -7.51873095 -1.27333347 0 0 Z " fill="#FCFCFB" transform="translate(748,225)"/>
<path d="M0 0 C0.66 0 1.32 0 2 0 C2.51046875 1.17755859 2.51046875 1.17755859 3.03125 2.37890625 C8.05320028 13.26425062 13.78827324 18.82155554 25 23 C25 23.66 25 24.32 25 25 C24.21496094 25.3403125 23.42992187 25.680625 22.62109375 26.03125 C11.73574938 31.05320028 6.17844446 36.78827324 2 48 C1.34 48 0.68 48 0 48 C-0.3403125 47.21496094 -0.680625 46.42992187 -1.03125 45.62109375 C-6.05320028 34.73574938 -11.78827324 29.17844446 -23 25 C-23 24.34 -23 23.68 -23 23 C-22.21496094 22.6596875 -21.42992187 22.319375 -20.62109375 21.96875 C-9.73574938 16.94679972 -4.17844446 11.21172676 0 0 Z " fill="#9B9B9B" transform="translate(967,944)"/>
<path d="M0 0 C0.66 0 1.32 0 2 0 C4.28571429 8.42857143 4.28571429 8.42857143 4 13 C1.3144406 10.3144406 0.93950026 7.62378672 0 4 C-2.31 6.31 -4.62 8.62 -7 11 C-7.66 10.67 -8.32 10.34 -9 10 C-8.27683594 9.29423828 -8.27683594 9.29423828 -7.5390625 8.57421875 C-6.90742187 7.95160156 -6.27578125 7.32898438 -5.625 6.6875 C-4.68527344 5.76517578 -4.68527344 5.76517578 -3.7265625 4.82421875 C-1.81913393 2.91187472 -1.81913393 2.91187472 0 0 Z " fill="#717271" transform="translate(741,358)"/>
<path d="M0 0 C-1.61010527 4.07376031 -4.53822271 6.76507069 -7.625 9.75 C-8.140625 10.25660156 -8.65625 10.76320312 -9.1875 11.28515625 C-10.45383339 12.52803902 -11.7263144 13.76465276 -13 15 C-13.66 14.67 -14.32 14.34 -15 14 C-12.88370326 11.65864102 -10.75558371 9.32835941 -8.625 7 C-8.02171875 6.33226562 -7.4184375 5.66453125 -6.796875 4.9765625 C-6.21679688 4.34492188 -5.63671875 3.71328125 -5.0390625 3.0625 C-4.23782959 2.18271484 -4.23782959 2.18271484 -3.42041016 1.28515625 C-2 0 -2 0 0 0 Z " fill="#D8D9D7" transform="translate(733,227)"/>
<path d="M0 0 C0.99 0 1.98 0 3 0 C3 0.66 3 1.32 3 2 C1.35546875 3.62109375 1.35546875 3.62109375 -0.8125 5.4375 C-3.31102718 7.54463676 -5.7242056 9.65241398 -8 12 C-8.66 11.67 -9.32 11.34 -10 11 C-9.52949219 10.54109375 -9.05898438 10.0821875 -8.57421875 9.609375 C-4.67594627 5.79279321 -4.67594627 5.79279321 -1.25 1.5625 C-0.8375 1.046875 -0.425 0.53125 0 0 Z " fill="#CFCECE" transform="translate(675,258)"/>
<path d="M0 0 C0.33 0.99 0.66 1.98 1 3 C-1.64 5.64 -4.28 8.28 -7 11 C-7.66 10.67 -8.32 10.34 -9 10 C-6.03 6.7 -3.06 3.4 0 0 Z " fill="#626363" transform="translate(589,522)"/>
<path d="M0 0 C1.04293785 3.38954801 1.30754089 6.46327974 1 10 C0.01 10.66 -0.98 11.32 -2 12 C-1.85831863 10.56208484 -1.71148957 9.1246763 -1.5625 7.6875 C-1.48128906 6.88699219 -1.40007812 6.08648438 -1.31640625 5.26171875 C-1 3 -1 3 0 0 Z " fill="#D2D1CF" transform="translate(254,781)"/>
<path d="M0 0 C0.33 0.99 0.66 1.98 1 3 C0.01 3.33 -0.98 3.66 -2 4 C-3.20882096 6.00016466 -3.20882096 6.00016466 -4 8 C-4.99 8 -5.98 8 -7 8 C-4.69 5.36 -2.38 2.72 0 0 Z " fill="#646565" transform="translate(464,657)"/>
<path d="M0 0 C0 3 0 3 -2.5 5.6875 C-3.325 6.450625 -4.15 7.21375 -5 8 C-5.66 7.67 -6.32 7.34 -7 7 C-6.01 6.67 -5.02 6.34 -4 6 C-2.90833725 4.06669397 -2.90833725 4.06669397 -2 2 C-1.34 1.34 -0.68 0.68 0 0 Z " fill="#6A6B6B" transform="translate(700,472)"/>
</svg>
